<?xml version="1.0" standalone="no"?>
<!DOCTYPE svg PUBLIC "-//W3C//DTD SVG 20010904//EN"
 "http://www.w3.org/TR/2001/REC-SVG-20010904/DTD/svg10.dtd">
<svg version="1.0" xmlns="http://www.w3.org/2000/svg"
 width="592.000000pt" height="592.000000pt" viewBox="0 0 592.000000 592.000000"
 preserveAspectRatio="xMidYMid meet">
<metadata>
Created by potrace 1.14, written by Peter Selinger 2001-2017
</metadata>
<g transform="translate(0.000000,592.000000) scale(0.100000,-0.100000)"
fill="#000000" stroke="none">
<path d="M2755 5422 c-90 -36 -174 -82 -470 -260 -335 -201 -448 -266 -790
-457 -443 -247 -539 -315 -605 -430 -65 -113 -63 -87 -64 -1180 0 -1058 -1
-1036 50 -1152 36 -84 134 -177 274 -263 65 -40 241 -140 246 -140 1 0 29 -15
61 -34 32 -18 87 -49 123 -68 144 -79 370 -210 660 -383 168 -100 334 -198
370 -218 87 -47 219 -102 227 -93 4 4 8 387 9 851 l1 844 -91 90 c-249 246
-485 371 -811 426 -77 13 -447 15 -535 2 -19 -3 -60 -8 -90 -11 -30 -4 -62 -9
-70 -11 -30 -8 -120 -16 -120 -12 0 5 26 68 55 132 7 16 30 68 51 115 164 374
351 586 589 665 139 47 236 59 463 58 l172 0 88 89 c88 90 182 164 257 200
l40 20 0 621 c-1 387 -4 622 -10 623 -6 2 -42 -9 -80 -24z"/>
<path d="M3039 5448 c-7 -19 -1 -222 6 -227 6 -4 26 -14 45 -21 69 -26 188
-89 355 -190 211 -127 675 -400 681 -400 2 0 23 -12 47 -27 48 -30 442 -259
532 -308 33 -19 61 -37 62 -42 2 -4 -324 -7 -725 -7 -768 1 -815 -1 -984 -46
-89 -24 -129 -39 -213 -82 -108 -55 -161 -99 -291 -242 l-54 -59 -72 3 c-40 1
-116 3 -168 3 -423 4 -644 -116 -836 -455 -41 -72 -146 -309 -140 -315 4 -4
80 3 243 22 111 14 364 5 443 -15 19 -5 55 -12 79 -15 143 -21 394 -134 560
-253 137 -97 328 -289 464 -464 80 -103 243 -356 342 -533 49 -88 245 -455
245 -460 0 -3 -19 -15 -41 -27 -23 -13 -49 -28 -58 -33 -14 -9 -147 -85 -241
-138 -56 -32 -161 -83 -222 -111 -32 -14 -58 -29 -59 -33 -5 -42 -2 -233 3
-233 19 0 133 48 213 90 50 26 200 114 335 195 135 81 259 155 275 165 17 9
53 31 80 47 54 32 425 241 515 290 30 17 82 45 115 63 239 131 372 239 423
342 58 119 58 119 56 1178 -2 531 -5 974 -7 985 -22 124 -51 186 -118 259 -79
87 -199 161 -669 419 -30 16 -59 33 -65 37 -5 4 -32 20 -60 35 -27 15 -128 72
-223 128 -229 135 -209 123 -360 216 -74 44 -136 81 -138 81 -2 0 -34 19 -71
42 -105 64 -298 150 -304 136z m1766 -1408 l40 0 -2 -358 c-1 -196 -2 -363 -2
-370 -1 -9 -12 -11 -38 -8 -98 13 -337 21 -478 16 -43 -2 -31 -5 75 -25 151
-28 145 -26 300 -65 69 -17 129 -35 134 -40 5 -5 9 -88 10 -185 2 -173 2 -176
-19 -172 -11 3 -72 24 -135 47 -236 85 -567 180 -720 205 -19 3 -60 10 -90 15
-106 19 -205 31 -199 26 2 -2 65 -24 139 -49 254 -85 538 -207 845 -362 l180
-91 -2 -205 c-1 -112 -5 -216 -10 -231 l-8 -26 -99 74 c-166 125 -377 264
-516 341 -134 74 -430 218 -430 208 0 -1 42 -31 93 -66 84 -58 326 -238 353
-263 7 -6 31 -27 55 -46 48 -39 254 -219 309 -270 19 -18 65 -62 102 -97 l66
-63 -53 -53 c-29 -28 -95 -78 -146 -110 l-93 -57 -111 110 c-112 111 -202 188
-310 262 -53 36 -59 31 -14 -12 69 -67 299 -392 299 -423 0 -8 -12 -19 -27
-26 -16 -7 -93 -49 -173 -93 -80 -45 -165 -92 -190 -106 -25 -13 -60 -33 -78
-45 -19 -11 -37 -16 -41 -11 -5 5 -36 63 -71 129 -155 296 -270 495 -395 686
-57 86 -109 162 -117 170 -7 8 -34 42 -61 76 -388 503 -907 774 -1469 769 -65
-1 -118 3 -118 8 0 27 107 182 156 227 94 86 210 133 357 146 105 9 390 9 627
-1 102 -4 237 -9 300 -12 363 -15 336 -18 525 63 71 30 189 75 260 98 l130 44
-80 2 c-419 9 -543 7 -645 -11 -58 -10 -137 -31 -175 -45 -39 -15 -87 -33
-109 -41 -27 -10 -71 -14 -150 -12 l-111 3 90 90 c74 74 105 98 175 132 84 40
161 66 230 78 19 3 42 8 50 10 8 2 47 7 85 11 39 3 71 7 72 7 1 2 1278 -1
1428 -3z"/>
</g>
</svg>
